<?xml version="1.0" encoding="utf-8"?>
<!-- Generator: Adobe Illustrator 24.1.2, SVG Export Plug-In . SVG Version: 6.00 Build 0)  -->
<svg version="1.1" id="Ebene_1" xmlns="http://www.w3.org/2000/svg" xmlns:xlink="http://www.w3.org/1999/xlink" x="0px" y="0px"
	 viewBox="0 0 341.8 81.8" style="enable-background:new 0 0 341.8 81.8;" xml:space="preserve">
<style type="text/css">
	.st0{fill:#303737;}
	.st1{fill:#006174;}
</style>
<g>
	<path class="st0" d="M30.9,60c0-1.3-0.1-2.2-0.2-2.4c-2.5-4-6-6.5-10.6-7.3c-4.4-0.7-8.3,0.4-11.8,3c-0.2,0.1-0.3,0.3-0.5,0.5
		c0.7,0.3,1.3,0.5,2,0.8c1.4,0.6,2.7,1.4,3.9,2.4c0.2,0.2,0.4,0.6,0.3,0.9c-0.1,0.3-0.5,0.4-0.8,0.5c-0.3,0.1-0.7,0.1-1.1,0.2
		c-3.9,0.6-7.1,2.6-9.6,5.6c-0.4,0.5-0.4,0.8,0,1.3c2.4,3.2,5.5,5.3,9.4,6c0.3,0.1,0.6,0.2,0.9,0.2c0.5,0,0.9,0.2,0.9,0.6
		c0,0.3-0.2,0.7-0.5,0.9c-1.7,1.4-3.6,2.3-5.9,2.9c0.2,0.2,0.2,0.3,0.3,0.4c2.4,2.1,5.3,3.4,8.5,3.7c2.5,0.2,4.9-0.1,7.2-1.1
		c3.1-1.3,5.5-3.4,7.2-6.2c0.1-0.1,0.1-1.1,0.2-2.6c-5.4-0.4-12.6-1.6-12.6-5.2C18.3,61.6,25.5,60.4,30.9,60"/>
	<path class="st1" d="M38.6,50.6c-2.5-1.5-4.6-0.3-4.6,2.6v24.1c0,2.9,2,4.1,4.6,2.6l20.7-12c2.5-1.5,2.5-3.8,0-5.3L38.6,50.6z"/>
	<path class="st1" d="M73.4,1.9L73.4,1.9h-3.4c-0.5,0-1,0-1.3,0c-0.3,0-0.7,0.1-0.9,0.2c-0.3,0.1-0.5,0.3-0.7,0.5
		c-0.2,0.2-0.4,0.5-0.6,0.9l-8.2,14.2L50.1,3.4c-0.4-0.8-0.8-1.2-1.2-1.4s-1.2-0.2-2.2-0.2h-3.7c-0.7,0-1.1,0.2-1.2,0.5
		c-0.1,0.4,0,0.8,0.2,1.3l12.9,20.7v13c0,0.7,0.1,1.1,0.4,1.4s0.7,0.4,1.4,0.4h3c0.7,0,1.1-0.1,1.4-0.4s0.4-0.7,0.4-1.4V24.5
		L74.3,3.6c0.3-0.5,0.4-0.9,0.3-1.3C74.4,2,74,1.9,73.4,1.9 M35.8,1.9L35.8,1.9h-2.6c-0.7,0-1.2,0.1-1.5,0.3
		c-0.3,0.2-0.6,0.6-0.9,1.2L19.8,22.8L8.9,3.2C8.6,2.7,8.3,2.3,8,2.1C7.7,1.9,7.1,1.9,6.4,1.9H4.1C3.4,1.9,2.9,2,2.6,2.3
		S2.2,3,2.2,3.6v33.8c0,0.7,0.1,1.1,0.4,1.4s0.7,0.4,1.4,0.4h2.5c0.7,0,1.2-0.1,1.4-0.4c0.2-0.3,0.4-0.7,0.4-1.4v-16
		c0-1.7-0.1-3.3-0.2-5C8,14.8,7.7,13,7.3,10.9h0.4c0.3,1.1,0.6,2,0.9,2.8c0.3,0.8,0.6,1.6,0.9,2.4c0.3,0.7,0.6,1.5,1,2.2
		c0.4,0.7,0.8,1.4,1.2,2.2l5.3,9.1c0.3,0.5,0.6,0.9,0.8,1c0.3,0.2,0.7,0.2,1.2,0.2h1.7c0.5,0,0.9-0.1,1.2-0.3c0.3-0.2,0.6-0.5,0.8-1
		l5.2-9.1c0.8-1.5,1.6-3,2.3-4.5c0.7-1.5,1.4-3.2,2-5.2h0.4c-0.5,2-0.8,3.9-1,5.6c-0.2,1.7-0.3,3.3-0.3,4.8v16
		c0,0.7,0.1,1.1,0.4,1.4c0.2,0.3,0.7,0.4,1.4,0.4h2.7c0.7,0,1.2-0.1,1.4-0.4c0.2-0.3,0.4-0.7,0.4-1.4V3.6c0-0.7-0.1-1.1-0.4-1.4
		C36.9,2,36.5,1.9,35.8,1.9"/>
	<path class="st0" d="M229.6,1.9L229.6,1.9h-24.7c-0.7,0-1.2,0.1-1.4,0.4c-0.2,0.3-0.4,0.7-0.4,1.4v2.6c0,0.7,0.1,1.1,0.4,1.4
		c0.2,0.3,0.7,0.4,1.4,0.4h9v29.4c0,0.7,0.1,1.1,0.4,1.4c0.3,0.3,0.7,0.4,1.4,0.4h3c0.7,0,1.1-0.1,1.4-0.4c0.3-0.3,0.4-0.7,0.4-1.4
		V8h9c0.7,0,1.1-0.1,1.4-0.4c0.3-0.3,0.4-0.7,0.4-1.4V3.6c0-0.7-0.1-1.1-0.4-1.4C230.7,2,230.3,1.9,229.6,1.9 M198.3,1.9L198.3,1.9
		h-20.9c-0.7,0-1.2,0.1-1.4,0.4c-0.3,0.3-0.4,0.7-0.4,1.4v33.8c0,0.7,0.1,1.1,0.4,1.4c0.3,0.3,0.7,0.4,1.4,0.4h21.5
		c0.7,0,1.2-0.1,1.4-0.4c0.2-0.3,0.4-0.7,0.4-1.4v-2.6c0-0.7-0.1-1.1-0.4-1.4c-0.2-0.3-0.7-0.4-1.4-0.4h-16.7v-9.7h13.6
		c0.7,0,1.1-0.1,1.4-0.4c0.3-0.3,0.4-0.7,0.4-1.4V19c0-0.7-0.1-1.1-0.4-1.4c-0.3-0.3-0.7-0.4-1.4-0.4h-13.6V8h16.1
		c0.7,0,1.2-0.1,1.4-0.4s0.4-0.7,0.4-1.4V3.6c0-0.7-0.1-1.1-0.4-1.4C199.4,2,199,1.9,198.3,1.9 M140.9,12.6c0,2.3,0.4,4.1,1.3,5.5
		c0.9,1.4,2,2.4,3.4,3.1s2.9,1.3,4.6,1.6c1.7,0.3,3.3,0.5,4.9,0.7c1.1,0.1,2.1,0.3,3.2,0.4c1,0.2,1.9,0.5,2.7,0.8
		c0.8,0.4,1.4,0.8,1.8,1.4c0.5,0.6,0.7,1.3,0.7,2.2c0,1.9-0.7,3.3-2.1,4.2c-1.4,0.9-3.5,1.3-6.2,1.3c-2.1,0-3.8-0.4-5.2-1.3
		c-1.4-0.8-2.4-2.1-3-3.6c-0.3-0.6-0.6-1-0.9-1.2c-0.3-0.2-0.8-0.1-1.4,0.1l-2.9,1.1c-0.6,0.2-1,0.5-1.2,0.8
		c-0.2,0.3-0.1,0.8,0.1,1.5c0.5,1.4,1.2,2.7,2,3.8c0.8,1.1,1.8,2,3,2.7c1.2,0.7,2.5,1.3,4.1,1.7c1.6,0.4,3.4,0.6,5.4,0.6
		c2.4,0,4.6-0.3,6.4-0.9c1.9-0.6,3.4-1.4,4.7-2.4c1.3-1,2.2-2.3,2.9-3.7c0.6-1.4,1-3,1-4.8c0-2.2-0.4-4-1.2-5.3
		c-0.8-1.4-1.8-2.4-3.1-3.2c-1.3-0.8-2.7-1.4-4.3-1.7s-3.2-0.6-4.7-0.8c-1.2-0.1-2.3-0.3-3.4-0.5c-1.1-0.2-2.1-0.4-2.9-0.8
		c-0.8-0.4-1.5-0.8-2-1.4c-0.5-0.6-0.7-1.4-0.7-2.3c0-3.2,2.5-4.8,7.6-4.8c2.1,0,3.7,0.4,4.9,1.2c1.2,0.8,2.1,1.9,2.8,3.3
		c0.3,0.6,0.6,1,0.9,1.1c0.3,0.1,0.7,0.1,1.3-0.2l2.9-1.3c0.6-0.3,1-0.6,1.2-1c0.2-0.4,0.1-0.8-0.2-1.4c-1.2-2.6-2.9-4.6-5-5.9
		c-2.1-1.3-5.1-2-8.8-2c-2.4,0-4.5,0.3-6.3,0.9c-1.8,0.6-3.3,1.4-4.5,2.4c-1.2,1-2.1,2.2-2.7,3.6S140.9,10.9,140.9,12.6 M107.6,12.6
		c0,2.3,0.4,4.1,1.3,5.5c0.9,1.4,2,2.4,3.4,3.1c1.4,0.7,2.9,1.3,4.6,1.6c1.7,0.3,3.3,0.5,4.9,0.7c1.1,0.1,2.1,0.3,3.2,0.4
		c1,0.2,1.9,0.5,2.7,0.8c0.8,0.4,1.4,0.8,1.8,1.4c0.5,0.6,0.7,1.3,0.7,2.2c0,1.9-0.7,3.3-2.1,4.2c-1.4,0.9-3.5,1.3-6.2,1.3
		c-2.1,0-3.8-0.4-5.2-1.3c-1.4-0.8-2.4-2.1-3-3.6c-0.3-0.6-0.6-1-0.9-1.2c-0.3-0.2-0.8-0.1-1.4,0.1l-2.9,1.1c-0.6,0.2-1,0.5-1.2,0.8
		c-0.2,0.3-0.1,0.8,0.1,1.5c0.5,1.4,1.2,2.7,2,3.8c0.8,1.1,1.8,2,3,2.7c1.2,0.7,2.5,1.3,4.1,1.7c1.6,0.4,3.4,0.6,5.4,0.6
		c2.4,0,4.6-0.3,6.4-0.9c1.9-0.6,3.4-1.4,4.7-2.4s2.2-2.3,2.9-3.7c0.6-1.4,1-3,1-4.8c0-2.2-0.4-4-1.2-5.3c-0.8-1.4-1.8-2.4-3.1-3.2
		c-1.3-0.8-2.7-1.4-4.3-1.7c-1.6-0.3-3.2-0.6-4.7-0.8c-1.2-0.1-2.3-0.3-3.4-0.5c-1.1-0.2-2.1-0.4-2.9-0.8c-0.8-0.4-1.5-0.8-2-1.4
		c-0.5-0.6-0.7-1.4-0.7-2.3c0-3.2,2.5-4.8,7.6-4.8c2.1,0,3.7,0.4,4.9,1.2c1.2,0.8,2.1,1.9,2.8,3.3c0.3,0.6,0.6,1,0.9,1.1
		s0.7,0.1,1.3-0.2l2.9-1.3c0.6-0.3,1-0.6,1.2-1c0.2-0.4,0.1-0.8-0.2-1.4c-1.2-2.6-2.9-4.6-5-5.9c-2.1-1.3-5.1-2-8.8-2
		c-2.4,0-4.5,0.3-6.3,0.9c-1.8,0.6-3.3,1.4-4.5,2.4c-1.2,1-2.1,2.2-2.7,3.6S107.6,10.9,107.6,12.6 M90.1,14.3l4,11.1H83.2l4-11.1
		c0.3-0.8,0.5-1.6,0.7-2.3c0.2-0.8,0.3-1.4,0.3-2s0.1-1.1,0.1-1.4l0-0.6h0.4l0.1,0.6c0,0.4,0.1,0.8,0.2,1.4s0.2,1.3,0.4,2.1
		C89.6,12.7,89.8,13.5,90.1,14.3 M105.5,37.5L92.4,3.2c-0.2-0.6-0.5-1-0.8-1.2c-0.3-0.2-0.8-0.3-1.4-0.3h-2.8
		c-0.6,0-1.1,0.1-1.4,0.3c-0.3,0.2-0.6,0.6-0.8,1.2L72,37.5c-0.4,1.2,0,1.7,1.2,1.7h2.4c1.1,0,1.9-0.1,2.3-0.3
		c0.4-0.2,0.7-0.6,0.9-1.3l2.5-6.8h14.5l2.4,6.8c0.2,0.6,0.5,1.1,0.9,1.3c0.4,0.2,1.2,0.3,2.3,0.3h2.7
		C105.5,39.2,105.9,38.6,105.5,37.5"/>
	<path class="st1" d="M311.3,12.6c0,2.3,0.4,4.1,1.3,5.5c0.9,1.4,2,2.4,3.4,3.1c1.4,0.7,2.9,1.3,4.6,1.6c1.7,0.3,3.3,0.5,4.9,0.7
		c1.1,0.1,2.1,0.3,3.2,0.4c1,0.2,1.9,0.5,2.7,0.8c0.8,0.4,1.4,0.8,1.8,1.4c0.5,0.6,0.7,1.3,0.7,2.2c0,1.9-0.7,3.3-2.1,4.2
		c-1.4,0.9-3.5,1.3-6.2,1.3c-2.1,0-3.8-0.4-5.2-1.3c-1.4-0.8-2.4-2.1-3-3.6c-0.3-0.6-0.6-1-0.9-1.2c-0.3-0.2-0.8-0.1-1.4,0.1
		l-2.9,1.1c-0.6,0.2-1,0.5-1.2,0.8c-0.2,0.3-0.1,0.8,0.1,1.5c0.5,1.4,1.2,2.7,2,3.8c0.8,1.1,1.8,2,3,2.7c1.2,0.7,2.5,1.3,4.1,1.7
		c1.6,0.4,3.4,0.6,5.4,0.6c2.4,0,4.6-0.3,6.4-0.9c1.9-0.6,3.4-1.4,4.7-2.4s2.2-2.3,2.9-3.7c0.6-1.4,1-3,1-4.8c0-2.2-0.4-4-1.2-5.3
		c-0.8-1.3-1.8-2.4-3.1-3.2c-1.3-0.8-2.7-1.3-4.3-1.7s-3.2-0.6-4.7-0.8c-1.2-0.1-2.3-0.3-3.4-0.5c-1.1-0.2-2.1-0.4-2.9-0.8
		c-0.8-0.4-1.5-0.8-2-1.4c-0.5-0.6-0.7-1.4-0.7-2.3c0-3.2,2.5-4.8,7.6-4.8c2.1,0,3.7,0.4,4.9,1.2c1.2,0.8,2.1,1.9,2.8,3.3
		c0.3,0.6,0.6,1,0.9,1.1s0.7,0.1,1.3-0.2l2.9-1.3c0.6-0.3,1-0.6,1.2-1c0.2-0.4,0.1-0.8-0.2-1.4c-1.2-2.6-2.9-4.6-5-5.9
		c-2.1-1.3-5.1-2-8.8-2c-2.4,0-4.5,0.3-6.3,0.9c-1.8,0.6-3.3,1.4-4.5,2.4c-1.2,1-2.1,2.2-2.7,3.6C311.6,9.4,311.3,10.9,311.3,12.6
		 M303.6,1.9L303.6,1.9H301c-0.7,0-1.2,0.1-1.5,0.3s-0.6,0.6-0.9,1.2l-10.9,19.5L276.7,3.2c-0.3-0.6-0.6-0.9-0.9-1.1
		c-0.3-0.2-0.9-0.3-1.6-0.3h-2.3c-0.7,0-1.2,0.1-1.4,0.4c-0.3,0.3-0.4,0.7-0.4,1.4v33.8c0,0.7,0.1,1.1,0.4,1.4
		c0.3,0.3,0.7,0.4,1.4,0.4h2.5c0.7,0,1.2-0.1,1.4-0.4s0.4-0.7,0.4-1.4v-16c0-1.7-0.1-3.3-0.2-5c-0.2-1.6-0.4-3.5-0.9-5.5h0.4
		c0.3,1.1,0.6,2,0.9,2.8c0.3,0.8,0.6,1.6,0.9,2.4c0.3,0.7,0.6,1.5,1,2.2c0.4,0.7,0.8,1.4,1.2,2.2l5.3,9.1c0.3,0.5,0.6,0.9,0.8,1
		c0.3,0.2,0.7,0.2,1.2,0.2h1.7c0.5,0,0.9-0.1,1.2-0.3c0.3-0.2,0.6-0.5,0.8-1l5.2-9.1c0.8-1.5,1.6-3,2.3-4.5c0.7-1.5,1.4-3.2,2-5.2
		h0.4c-0.5,2-0.8,3.9-1,5.6c-0.2,1.7-0.3,3.3-0.3,4.8v16c0,0.7,0.1,1.1,0.4,1.4c0.2,0.3,0.7,0.4,1.4,0.4h2.7c0.7,0,1.2-0.1,1.4-0.4
		c0.2-0.3,0.4-0.7,0.4-1.4V3.6c0-0.7-0.1-1.1-0.4-1.4C304.8,2,304.3,1.9,303.6,1.9 M235.4,14.7L235.4,14.7v11.5
		c0,4.2,1.3,7.6,3.9,10c2.6,2.5,6.3,3.7,11.2,3.7c3.9,0,7-0.8,9.4-2.3c2.3-1.5,4-3.7,5-6.5c0.2-0.6,0.2-1.1,0.1-1.4
		c-0.2-0.3-0.6-0.6-1.2-0.9l-2.8-1c-0.6-0.2-1.1-0.3-1.4-0.1c-0.3,0.2-0.6,0.6-0.9,1.2c-0.6,1.6-1.5,2.8-2.8,3.7
		c-1.3,0.8-3,1.2-5.2,1.2c-2.7,0-4.8-0.6-6.3-1.9c-1.4-1.3-2.2-3.2-2.2-5.6V14.7c0-2.4,0.7-4.3,2.2-5.5c1.4-1.3,3.5-1.9,6.3-1.9
		c2.2,0,4,0.4,5.2,1.2c1.3,0.8,2.2,2,2.8,3.6c0.2,0.7,0.5,1.1,0.8,1.2c0.3,0.1,0.8,0.1,1.4-0.1l2.9-1c0.6-0.2,1-0.5,1.2-0.9
		c0.2-0.3,0.1-0.8-0.1-1.4c-1-2.8-2.7-5-5-6.5c-2.3-1.5-5.4-2.3-9.3-2.3c-4.8,0-8.6,1.2-11.1,3.7C236.7,7.2,235.4,10.5,235.4,14.7"
		/>
	<path class="st0" d="M83.4,70.3c0,2.5-1.2,3.9-3.3,3.9h-5.6v-7.8h5.7C82.2,66.4,83.4,67.8,83.4,70.3 M82.8,60.2
		c0,1.7-0.5,3.7-3,3.7h-5.3v-7.3h5.2C82.3,56.6,82.8,58.6,82.8,60.2 M83.3,65c1-0.8,1.9-2.3,1.9-4.8c0-3.7-2.1-6-5.5-6h-6.8
		c-0.2,0-0.9,0.1-0.9,1v20.6c0,0.9,0.7,1,0.9,1h7.2c3.6,0,5.8-2.4,5.8-6.3C85.9,67.8,85,65.9,83.3,65 M100.7,69
		c0,3.6-1.7,5.5-4.9,5.5c-3.1,0-4.9-2-4.9-5.5v-7.3c0-3.6,1.7-5.5,4.9-5.5c3.1,0,4.9,2,4.9,5.5V69z M103.2,69.1v-7.3
		c0-5-2.8-8.1-7.4-8.1c-4.6,0-7.4,3-7.4,8.1v7.3c0,5,2.8,8.1,7.4,8.1C100.4,77.1,103.2,74.1,103.2,69.1 M118.3,69
		c0,3.6-1.7,5.5-4.9,5.5c-3.1,0-4.9-2-4.9-5.5v-7.3c0-3.6,1.7-5.5,4.9-5.5c3.1,0,4.9,2,4.9,5.5V69z M120.8,69.1v-7.3
		c0-5-2.8-8.1-7.4-8.1c-4.6,0-7.4,3-7.4,8.1v7.3c0,5,2.8,8.1,7.4,8.1C118,77.1,120.8,74.1,120.8,69.1 M126,60.2c0-2.5,1.6-4,4.4-4
		c2.4,0,3.8,1,4.8,3.5c0.4,0.7,1,0.6,1.2,0.4L137,60c0.4-0.1,0.5-0.4,0.6-0.6c0.1-0.2,0.1-0.5-0.1-0.8c-1.4-3.5-3.5-5-7.1-5
		c-4.3,0-6.9,2.5-6.9,6.6c0,5.4,4.4,6,7,6.4c2.9,0.4,4.7,0.9,4.7,3.8c0,2.8-1.5,4.1-4.7,4.1c-2.5,0-4-1.2-5-4
		c-0.3-0.7-0.8-0.7-1.2-0.6l-0.6,0.2c-0.3,0.1-0.8,0.4-0.6,1.3c1.2,3.8,3.6,5.6,7.3,5.6c4.7,0,7.2-2.4,7.2-6.7c0-5.4-4.2-6-6.8-6.4
		C128.1,63.7,126,63.2,126,60.2 M152.7,55.6v-0.5c0-0.9-0.7-1-0.9-1h-12.1c-0.2,0-0.9,0.1-0.9,1v0.5c0,0.6,0.4,1,0.9,1h4.8v19.1
		c0,0.6,0.4,1,0.9,1h0.6c0.6,0,0.9-0.4,0.9-1V56.6h4.8C152.4,56.6,152.7,56.3,152.7,55.6 M157.4,75.7V55c0-0.6-0.4-1-0.9-1h-0.6
		c-0.6,0-0.9,0.4-0.9,1v20.7c0,0.7,0.5,1,0.9,1h0.6C157,76.7,157.4,76.3,157.4,75.7 M175.8,75.7V55.1c0-0.9-0.7-1-0.9-1h-0.6
		c-0.6,0-0.9,0.4-0.9,1v13.6c0,1,0,1.9,0.1,2.7c-0.3-0.6-0.7-1.3-1-1.9L164,54.7c-0.2-0.4-0.5-0.6-0.9-0.6h-0.7
		c-0.2,0-0.9,0.1-0.9,1v20.6c0,0.9,0.7,1,0.9,1h0.5c0.3,0,1-0.1,1-1v-14c0-0.8,0-1.5,0-2.2c0.2,0.5,0.5,1,0.7,1.5l8.6,15.2
		c0.2,0.4,0.5,0.6,0.9,0.6h0.7C175,76.7,175.8,76.6,175.8,75.7 M193.9,69.3v-3.6c0-0.9-0.6-1-1-1h-6.2c-0.2,0-0.9,0.1-0.9,1v0.5
		c0,0.6,0.4,1,0.9,1h4.7v2.1c0,3.4-1.7,5.3-4.9,5.3c-4,0-4.9-3-4.9-5.5v-7.4c0-2.5,0.8-5.5,4.9-5.5c2.8,0,4,1.1,4.8,4
		c0,0.1,0.1,0.5,0.5,0.6c0.3,0.2,0.7,0,0.7,0l0.6-0.2c0.3-0.1,0.8-0.5,0.6-1.2c-1-3.9-3.2-5.7-7.1-5.7c-4.6,0-7.4,3-7.4,8V69
		c0,5.1,2.8,8.1,7.4,8.1C191.1,77.1,193.9,74.1,193.9,69.3 M212.3,67.3h-5.8l2.9-8.9L212.3,67.3z M217.6,76.4
		c0.1-0.2,0.2-0.4,0.1-0.8l-6.9-20.8c-0.2-0.5-0.5-0.8-1-0.8h-0.6c-0.5,0-0.9,0.3-1,0.8l-6.9,20.8c-0.2,0.4-0.1,0.7,0.1,0.9
		c0.1,0.2,0.3,0.4,0.8,0.4h0.5c0.3,0,0.9,0,1.2-0.8l2-6.2h7.4l2,6.2c0.2,0.7,0.7,0.8,1.2,0.8h0.5C217.2,76.7,217.5,76.5,217.6,76.4
		 M233.8,68.8V55.1c0-0.6-0.4-1-0.9-1h-0.6c-0.6,0-0.9,0.4-0.9,1v13.8c0,2.6-0.8,5.8-4.7,5.8c-3.9,0-4.7-3.1-4.7-5.8V55.1
		c0-0.6-0.4-1-0.9-1h-0.6c-0.6,0-0.9,0.4-0.9,1v13.8c0,5.3,2.6,8.3,7.2,8.3C231.1,77.1,233.8,74.1,233.8,68.8 M249,68.1
		c0,3.9-1.9,6-5.3,6h-3.6V56.6h3.6c3.4,0,5.3,2.1,5.3,6V68.1z M251.5,68.1v-5.5c0-5.4-2.9-8.6-7.8-8.6h-5.1c-0.2,0-0.9,0.1-0.9,1
		v20.6c0,0.9,0.7,1,0.9,1h5.1C248.6,76.7,251.5,73.5,251.5,68.1 M257.4,75.7V55c0-0.6-0.4-1-0.9-1h-0.6c-0.6,0-0.9,0.4-0.9,1v20.7
		c0,0.7,0.5,1,0.9,1h0.6C257,76.7,257.4,76.3,257.4,75.7 M273.7,75.7v-0.5c0-0.6-0.4-1-0.9-1h-8.8v-7.6h7.4c0.2,0,0.9-0.1,0.9-1V65
		c0-0.7-0.5-1-0.9-1h-7.4v-7.3h8.5c0.6,0,0.9-0.4,0.9-1v-0.5c0-0.9-0.7-1-0.9-1h-10c-0.2,0-0.9,0.1-0.9,1v20.6c0,0.9,0.7,1,0.9,1
		h10.4C273,76.7,273.7,76.6,273.7,75.7 M290.9,75.7V55.1c0-0.9-0.7-1-0.9-1h-0.6c-0.6,0-0.9,0.4-0.9,1v13.6c0,1,0,1.9,0,2.7
		c-0.3-0.6-0.7-1.3-1-1.9l-8.4-14.8c-0.2-0.4-0.5-0.6-0.9-0.6h-0.7c-0.2,0-0.9,0.1-0.9,1v20.6c0,0.9,0.7,1,0.9,1h0.5
		c0.3,0,1-0.1,1-1v-14c0-0.8,0-1.5,0-2.2c0.2,0.5,0.5,1,0.7,1.5l8.6,15.2c0.2,0.4,0.5,0.6,0.9,0.6h0.7
		C290.2,76.7,290.9,76.6,290.9,75.7 M296.9,69.1v-7.4c0-2.5,0.8-5.5,4.9-5.5c2.8,0,4.1,1.1,4.8,4c0,0.1,0.1,0.4,0.5,0.6
		c0.3,0.2,0.7,0,0.8,0l0.5-0.2c0.3-0.1,0.5-0.2,0.6-0.5c0.2-0.4,0.1-0.7,0-0.8c-1-4-3.2-5.7-7.2-5.7c-4.6,0-7.4,3-7.4,8v7.4
		c0,5,2.8,8.1,7.4,8.1c3.9,0,6.1-1.8,7.3-5.8c0.2-0.8-0.3-1.1-0.6-1.3l-0.6-0.2c-0.1,0-0.4-0.2-0.8,0c-0.3,0.2-0.4,0.5-0.5,0.7
		c-0.8,2.9-2.1,4-4.8,4C298.6,74.6,296.9,72.6,296.9,69.1 M324.1,75.7v-0.5c0-0.6-0.4-1-0.9-1h-8.8v-7.6h7.4c0.2,0,0.9-0.1,0.9-1V65
		c0-0.7-0.5-1-0.9-1h-7.4v-7.3h8.5c0.6,0,0.9-0.4,0.9-1v-0.5c0-0.9-0.7-1-0.9-1h-10c-0.2,0-0.9,0.1-0.9,1v20.6c0,0.9,0.7,1,0.9,1
		h10.4C323.4,76.7,324.1,76.6,324.1,75.7 M340.4,59.4c0.1-0.2,0.1-0.5-0.1-0.8c-1.4-3.5-3.5-5-7.1-5c-4.3,0-6.9,2.5-6.9,6.6
		c0,5.4,4.4,6,7,6.4c2.9,0.4,4.7,0.9,4.7,3.8c0,2.8-1.5,4.1-4.7,4.1c-2.5,0-4-1.2-5-4c-0.3-0.7-0.8-0.7-1.2-0.6l-0.6,0.2
		c-0.3,0.1-0.8,0.4-0.6,1.3c1.2,3.8,3.6,5.6,7.3,5.6c4.7,0,7.2-2.4,7.2-6.7c0-5.4-4.2-6-6.8-6.4c-2.9-0.4-5-0.9-5-3.9
		c0-2.5,1.6-4,4.4-4c2.4,0,3.8,1,4.8,3.5c0.4,0.7,1,0.6,1.2,0.4l0.5-0.2C340.1,59.9,340.3,59.6,340.4,59.4"/>
</g>
</svg>
