<?xml version="1.0" encoding="utf-8"?>
<!-- Generator: Adobe Illustrator 24.1.2, SVG Export Plug-In . SVG Version: 6.00 Build 0)  -->
<svg version="1.1" id="Ebene_1" xmlns="http://www.w3.org/2000/svg" xmlns:xlink="http://www.w3.org/1999/xlink" x="0px" y="0px"
	 viewBox="0 0 95 95" style="enable-background:new 0 0 95 95;" xml:space="preserve">
<style type="text/css">
	.st0{fill:#FFFFFF;}
</style>
<g>
	<path class="st0" d="M47.8,27.7c-7.6,0-15.2,0-22.9,0c-1.9,0-2.4,0.5-2.4,2.4c0,11.8,0,23.5,0,35.3c0,2,0.5,2.5,2.5,2.5
		c15.1,0,30.3,0,45.4,0c2,0,2.5-0.5,2.5-2.5c0-11.7,0-23.5,0-35.2c0-2.1-0.5-2.5-2.5-2.5C62.8,27.7,55.3,27.7,47.8,27.7 M47.6,94.7
		c-25.9,0-46.9-21.1-46.9-47.1c0-25.8,21.1-46.8,47-46.8c25.9,0,46.9,21.2,46.9,47.1C94.6,73.8,73.5,94.8,47.6,94.7"/>
	<path class="st0" d="M69.4,33.1v31.4H25.9V33.2c0.3,0.2,0.6,0.4,0.9,0.6c6.3,5.4,12.7,10.8,19,16.3c1.7,1.4,2,1.4,3.6,0
		c6.4-5.4,12.7-10.9,19.1-16.3C68.8,33.6,69,33.4,69.4,33.1"/>
	<path class="st0" d="M66.5,31.1C60.2,36.5,54,41.8,47.7,47.3c-6.2-5.3-12.5-10.7-18.8-16.1H66.5z"/>
</g>
</svg>
